<svg id="Layer_2" data-name="Layer 2" xmlns="http://www.w3.org/2000/svg" viewBox="0 0 158.93 37.61"><defs><style>.cls-1{fill:#fdc305;}.cls-2{fill:#f06351;}.cls-3{fill:#111;}</style></defs><path class="cls-1" d="M6.07,20.72V18.46a143.16,143.16,0,0,1,20.17-1.33c0,.6,0,1.21-.06,1.82a25.67,25.67,0,0,1,6-1.82,16.67,16.67,0,0,0-32,3.26Z" transform="translate(0 0)"/><path class="cls-1" d="M27.24,24.23c-1.16,1.28-1.39,1.2-1.39,3.45v9.18A16.64,16.64,0,0,0,33.32,23,17,17,0,0,0,33,19.9,33.26,33.26,0,0,0,27.24,24.23Z" transform="translate(0 0)"/><path class="cls-1" d="M6.36,25.72s-3.79-1.44-5.19-1.83A9.06,9.06,0,0,0,0,23.61a16.65,16.65,0,0,0,8.68,14Z" transform="translate(0 0)"/><path class="cls-2" d="M26.29,17.12A90.08,90.08,0,0,0,24.89.65S24.75-.64,24,.41a14.37,14.37,0,0,0-1.2,3.94A70.76,70.76,0,0,0,10,4.69C9.24,2,7.85.75,7.18,1s-.72,3.31-.72,3.31l-.33,14.1A143.08,143.08,0,0,1,26.29,17.12Z" transform="translate(0 0)"/><path d="M12.41,14c0-.09,1,.68,1.41.92s.61.42.61.59-.27.34-.63.34a1.66,1.66,0,0,1-1-.27H14A8.36,8.36,0,0,1,12.41,14Z" transform="translate(0 0)"/><path d="M19.89,14.11,18.8,15.44c0,.06-.17.35.18.3a7.46,7.46,0,0,0,1.22-.29c.11,0,.07-.19-.11-.17s-.69.05-1,.11l.84-1.26S20,14,19.89,14.11Z" transform="translate(0 0)"/><path d="M16.75,20.2a2.3,2.3,0,0,0,1.09-1c.28-.65,0-.91-.44-1a2.43,2.43,0,0,0-1.74.34.62.62,0,0,0-.05,1A5,5,0,0,0,16.75,20.2Z" transform="translate(0 0)"/><path class="cls-2" d="M16.35,21.45a1.92,1.92,0,0,1-.46.6,1.71,1.71,0,0,1-1,.38A2.15,2.15,0,0,1,13.42,22a2.26,2.26,0,0,1-.53-.44,1,1,0,0,0-.36-.26s.75,4.1,2.57,4.75,2.14-.75,2.2-1.13a5.66,5.66,0,0,0-.82-3.23C16.46,21.38,16.45,21.58,16.35,21.45Z" transform="translate(0 0)"/><path d="M14.71,22.59h0a3.45,3.45,0,0,1-2.33-1.42.13.13,0,0,1,0-.2h0a.13.13,0,0,1,.2,0h0a3.26,3.26,0,0,0,2.11,1.3h0a2.09,2.09,0,0,0,1.63-1l.14-.19.1.21s.37.76,1,.8,1.05-.41,1.61-1.28a.13.13,0,0,1,.2,0h0a.15.15,0,0,1,.05.2c-.64,1-1.27,1.44-1.88,1.4a1.56,1.56,0,0,1-1.12-.76A2.26,2.26,0,0,1,14.71,22.59Z" transform="translate(0 0)"/><path class="cls-2" d="M26.24,18.92a57.76,57.76,0,0,0-5.07,5.19A31.43,31.43,0,0,1,15.88,29c-.22-.53-1.62-1.51-1.62-1.51s-3.13-2.14-5.18-3.82a32.84,32.84,0,0,1-3.13-3l-2-.11a22.53,22.53,0,0,0,12,8.8c.86-.14,3.27-1.86,5.07-3.26A59,59,0,0,0,27,20.21a6.22,6.22,0,0,0,1.14-2C27,18.6,26.24,18.92,26.24,18.92Z" transform="translate(0 0)"/><path class="cls-3" d="M72.26,27.88a6,6,0,0,1-1.06-3.79V18.55a6,6,0,0,1,1.06-3.85,4.41,4.41,0,0,1,3.62-1.3,4.46,4.46,0,0,1,3.49,1.16,4.75,4.75,0,0,1,1,3.28v1.33H77V17.64a4,4,0,0,0-.2-1.41c-.13-.31-.43-.47-.92-.47a.93.93,0,0,0-1,.51,3.27,3.27,0,0,0-.24,1.38v7.23a3.18,3.18,0,0,0,.25,1.39.94.94,0,0,0,.95.48.87.87,0,0,0,.92-.48,3.87,3.87,0,0,0,.2-1.39V23.3h3.37v1.33a5.06,5.06,0,0,1-1,3.36,4.36,4.36,0,0,1-3.5,1.21A4.41,4.41,0,0,1,72.26,27.88Z" transform="translate(0 0)"/><path class="cls-3" d="M84.47,13.61h3.92L91.31,29H88.13l-.53-3.24H85.3L84.76,29H81.52ZM87.28,23.7l-.87-6-.83,6Z" transform="translate(0 0)"/><path class="cls-3" d="M93.68,16.14H91.33V13.61h8.15v2.53H97.15V29h-3.5Z" transform="translate(0 0)"/><path class="cls-3" d="M105.71,13.61h6.05v1.6h-3.87v5.08H111V21.8h-3.14v5.63h3.91V29h-6.11Z" transform="translate(0 0)"/><path class="cls-3" d="M113.53,13.61H115l4.43,10.2V13.61h1.81V29h-1.39l-4.48-10.48V29H113.5Z" transform="translate(0 0)"/><path class="cls-3" d="M123.42,13.61h6v1.6h-3.88v5.08h3.15V21.8h-3.15v5.63h3.91V29h-6.11Z" transform="translate(0 0)"/><path class="cls-3" d="M131.24,13.61h3.14a5.3,5.3,0,0,1,3.49,1A3.94,3.94,0,0,1,139,17.69c0,2-.64,3.17-1.92,3.58l2.2,7.7h-2.09l-2-7.2h-1.7V29h-2.17Zm3,6.62a2.94,2.94,0,0,0,2-.55,2.62,2.62,0,0,0,.61-2,4.12,4.12,0,0,0-.21-1.48,1.46,1.46,0,0,0-.75-.81,3.74,3.74,0,0,0-1.52-.25h-1v5.08Z" transform="translate(0 0)"/><path class="cls-3" d="M141.75,27.84a6.8,6.8,0,0,1-.94-3.92V18.79a9.61,9.61,0,0,1,.38-2.92,3.2,3.2,0,0,1,1.29-1.75A4.43,4.43,0,0,1,145,13.5a4,4,0,0,1,3.11,1.08A5,5,0,0,1,149,18v.57h-2v-.48a8.79,8.79,0,0,0-.13-1.7,1.43,1.43,0,0,0-.57-.87,2.2,2.2,0,0,0-1.28-.31,2,2,0,0,0-1.35.41,1.92,1.92,0,0,0-.56,1.09,9.24,9.24,0,0,0-.13,1.82v5.68a5.52,5.52,0,0,0,.43,2.54,2.11,2.11,0,0,0,3.33-.11,5.82,5.82,0,0,0,.45-2.67V22.88h-2V21.37h4V29h-1.36l-.22-1.75a2.75,2.75,0,0,1-2.77,2A3.48,3.48,0,0,1,141.75,27.84Z" transform="translate(0 0)"/><path class="cls-3" d="M153.51,23.55l-3.37-9.94h2L154.55,21l2.34-7.41h2l-3.35,9.94V29H153.5Z" transform="translate(0 0)"/></svg>