<svg id="Layer_1" data-name="Layer 1" xmlns="http://www.w3.org/2000/svg" xmlns:xlink="http://www.w3.org/1999/xlink" viewBox="0 0 67 50"><defs><style>.cls-1{fill:none;}.cls-2{fill:#68b738;}.cls-3{clip-path:url(#clip-path);}</style><clipPath id="clip-path" transform="translate(-1.52 -31.57)"><rect class="cls-1" x="1.52" y="42.57" width="67" height="28"/></clipPath></defs><circle class="cls-2" cx="33.5" cy="25" r="25"/><g class="cls-3"><g class="cls-3"><path d="M63.05,45.48a7.85,7.85,0,0,1,2.27-2.32c.5-.33.82-.33,1.08.28a4.38,4.38,0,0,1,.45,3,1.14,1.14,0,0,0,.21,1c.28.37.53.77.79,1.16a3.25,3.25,0,0,1,.46,3.1,2.65,2.65,0,0,0-.1,1.53,4.33,4.33,0,0,1,0,1.48,1.78,1.78,0,0,1-1.35,1.59,2.9,2.9,0,0,0-1.61,1,.6.6,0,0,1-.42.27c-.59.08-2.09-1.26-2.09-1.87,0-.09,0-.19,0-.29,0-1.79-.08-2-1.71-2.69a2.25,2.25,0,0,1-.9-.61A.85.85,0,0,0,59,52a.87.87,0,0,0-.64,1,33.94,33.94,0,0,1,.18,3.63.76.76,0,0,0,.11.42c1.55,2.25,2.13,4.89,2.9,7.43a3.85,3.85,0,0,0,3.7,3.14c.31,0,.63.1.94.16a2.1,2.1,0,0,1,1.69,1.58c.33,1,.16,1.27-.92,1.28s-2.17,0-3.25,0a1.47,1.47,0,0,1-1.14-.41,5.43,5.43,0,0,0-1.71-1,3.6,3.6,0,0,1-1.68-1.29,15,15,0,0,0-2-2.26c-1.42-1.45-2.88-2.85-4.22-4.37a5.62,5.62,0,0,1-1.58-3.81c0-.47-.11-.67-.59-.43a1.12,1.12,0,0,1-.49.15,2.73,2.73,0,0,0-2.59,2.09c-.44,1.07-1.07,2.06-1.59,3.1a4.85,4.85,0,0,0-.58,2.21,1.71,1.71,0,0,0,1.38,2,2.82,2.82,0,0,1,1.71,1.19c.42.78.3,1-.57,1H44.67a.94.94,0,0,1-1-.55c-.28-.52-.62-1-.93-1.52A3,3,0,0,1,42.42,64a5.52,5.52,0,0,0,0-2.65,4.21,4.21,0,0,1,.86-3.48c.28-.33.31-.52-.2-.61a23.92,23.92,0,0,1-5.91-2l-.06,0c-1.6-.62-1.91-.48-2.36,1.14-.38,1.41-.79,2.81-1.09,4.24a8.48,8.48,0,0,0,.56,4.58c.19.58.77.56,1.22.69a3.13,3.13,0,0,1,2.26,1.73c.33.79.29.9-.55.91s-1.72,0-2.58,0a3.22,3.22,0,0,1-2.09-.7c-2.4-1.62-3.08-4-3.28-6.72a7.13,7.13,0,0,0-2-4.19c-.21-.23-.39-.33-.69-.14a18.14,18.14,0,0,1-3.38,1.48A13.37,13.37,0,0,0,17,62.63a5.52,5.52,0,0,0-1.12,2.56c-.13.9.12,1.28,1,1.53a1.75,1.75,0,0,1,1.44,1.72c.05.41-.1.63-.51.63H13.76a.87.87,0,0,1-.67-.4,4.49,4.49,0,0,1-1-2.75,25.63,25.63,0,0,1,.46-5.17,3,3,0,0,1,1.68-2.39c3-1.4,4.5-4,5.89-6.8.28-.56,0-.65-.45-.6a7.83,7.83,0,0,0-3.84,1.59,40.29,40.29,0,0,0-4.17,3.55,8.28,8.28,0,0,1-5.15,2.47c-3.45.24-5.18-1.77-5-5.11a4.84,4.84,0,0,1,1.21-3A2.1,2.1,0,0,1,5,49.65c.76.22,1,.61.64,1.33-.13.29-.32.55-.48.84a7,7,0,0,0-.49,1A1.83,1.83,0,0,0,6.4,55.49,5.92,5.92,0,0,0,10.66,54a23.86,23.86,0,0,0,4-4.13,10.44,10.44,0,0,1,7.2-4,22.4,22.4,0,0,0,3.24-1,21,21,0,0,1,6.33-.88,7.09,7.09,0,0,0,2.93-.54,12.76,12.76,0,0,1,7.54-.48c2,.41,4,.91,6,1.39a8.07,8.07,0,0,0,3.49-.08,33.86,33.86,0,0,1,6.7-1,9.66,9.66,0,0,1,4.3.84c1,.45,1,.44.67,1.4" transform="translate(-1.52 -31.57)"/></g></g></svg>