<?xml version="1.0" standalone="no"?>
<!DOCTYPE svg PUBLIC "-//W3C//DTD SVG 20010904//EN"
 "http://www.w3.org/TR/2001/REC-SVG-20010904/DTD/svg10.dtd">
<svg version="1.0" xmlns="http://www.w3.org/2000/svg"
 width="231.000000pt" height="140.000000pt" viewBox="0 0 231.000000 140.000000"
 preserveAspectRatio="xMidYMid meet" fill = "#68b738">

<g transform="translate(0.000000,140.000000) scale(0.100000,-0.100000)" stroke="none">
<path d="M1117 1333 c-29 -49 -335 -580 -399 -693 l-20 -35 29 33 c15 18 116
138 223 266 107 129 198 235 201 235 6 1 240 -511 236 -516 -2 -1 -145 -27
-318 -57 l-314 -54 453 -1 453 -1 -12 22 c-20 38 -471 822 -484 841 -12 17
-16 13 -48 -40z"/>
<path d="M992 775 c3 -107 16 -130 68 -126 29 1 49 1 100 0 44 -1 60 33 60
132 0 82 -2 89 -20 89 -17 0 -19 -8 -22 -87 -3 -83 -4 -88 -25 -91 -22 -3 -23
-1 -23 87 0 90 0 91 -25 91 -25 0 -25 -1 -25 -90 0 -83 -1 -90 -20 -90 -19 0
-20 7 -20 90 l0 90 -26 0 -26 0 4 -95z"/>
<path fill = "#000000" d="M492 271 c-21 -13 -10 -46 16 -49 27 -4 40 22 22 43 -14 17 -20 18
-38 6z"/>
<path fill = "#000000" d="M1290 265 c-18 -21 -5 -47 22 -43 26 3 37 36 16 49 -18 12 -24 11
-38 -6z"/>
<path fill = "#000000" d="M580 230 c0 -22 -4 -40 -10 -40 -5 0 -10 -9 -10 -20 0 -11 5 -20 10
-20 6 0 10 -16 10 -35 0 -42 22 -90 45 -99 9 -3 30 -6 46 -6 22 0 29 5 29 20
0 14 -7 20 -23 20 -33 0 -47 19 -47 62 0 37 1 38 35 38 28 0 35 4 35 20 0 16
-7 20 -35 20 -34 0 -35 1 -35 40 0 36 -2 40 -25 40 -22 0 -25 -4 -25 -40z"/>
<path fill = "#000000" d="M190 155 c0 -100 1 -107 26 -132 20 -20 31 -24 57 -19 45 9 48 9 84
1 26 -6 36 -3 57 18 25 25 26 32 26 132 0 105 0 105 -25 105 -24 0 -24 -1 -27
-102 -3 -95 -4 -103 -23 -103 -19 0 -20 8 -23 103 -3 101 -3 102 -27 102 -24
0 -24 -1 -27 -102 -3 -95 -4 -103 -23 -103 -19 0 -20 8 -23 103 -3 101 -3 102
-27 102 -25 0 -25 0 -25 -105z"/>
<path fill = "#000000" d="M1050 136 l0 -126 66 0 c62 0 68 2 100 34 30 30 34 40 34 85 0 44 -5
56 -34 88 -31 34 -38 37 -100 41 l-66 4 0 -126z m130 54 c44 -44 31 -109 -26
-130 -51 -20 -54 -16 -54 70 l0 80 30 0 c17 0 39 -9 50 -20z"/>
<path fill = "#000000" d="M769 185 c-58 -32 -61 -114 -6 -161 62 -52 147 -6 147 81 0 36 -5 47
-31 69 -34 29 -71 32 -110 11z m91 -56 c26 -47 -25 -100 -69 -72 -20 13 -26
60 -10 79 18 22 66 18 79 -7z"/>
<path fill = "#000000" d="M1598 185 c-59 -32 -58 -139 2 -170 36 -19 54 -19 90 0 18 9 31 11
35 5 17 -27 25 -2 25 80 0 82 -8 107 -25 80 -4 -7 -14 -5 -28 5 -27 19 -64 19
-99 0z m92 -54 c22 -41 -1 -81 -45 -81 -38 0 -60 61 -33 88 19 19 66 15 78 -7z"/>
<path fill = "#000000" d="M1973 188 c-30 -15 -54 -69 -47 -106 20 -100 168 -102 188 -2 16 83
-65 145 -141 108z m91 -60 c7 -11 7 -26 0 -45 -7 -22 -17 -29 -42 -31 -26 -3
-34 1 -44 22 -18 41 3 78 44 74 17 -2 36 -11 42 -20z"/>
<path fill = "#000000" d="M490 100 c0 -83 1 -90 20 -90 19 0 20 7 20 90 0 83 -1 90 -20 90 -19
0 -20 -7 -20 -90z"/>
<path fill = "#000000" d="M1290 100 c0 -83 1 -90 20 -90 19 0 20 7 20 90 0 83 -1 90 -20 90
-19 0 -20 -7 -20 -90z"/>
<path fill = "#000000" d="M1363 178 c2 -7 17 -48 33 -90 26 -69 32 -78 55 -78 23 0 29 9 57 84
18 45 32 86 32 90 0 3 -11 6 -24 6 -21 0 -28 -8 -42 -55 -10 -30 -21 -52 -25
-48 -3 5 -14 29 -24 56 -15 39 -22 47 -42 47 -16 0 -23 -5 -20 -12z"/>
<path fill = "#000000" d="M1790 101 c0 -84 1 -91 20 -91 18 0 20 7 20 54 0 61 16 86 56 86 17
0 24 5 24 20 0 17 -7 20 -39 20 -22 0 -43 -5 -46 -10 -5 -8 -11 -7 -21 1 -12
10 -14 -2 -14 -80z"/>
</g>
</svg>
